<svg width="152" height="32" viewBox="0 0 152 32" fill="none" xmlns="http://www.w3.org/2000/svg">
<g clip-path="url(#clip0_0_892)">
<path d="M9.28965 13.5757L15.1892 7.67855L21.0911 13.5805L24.522 10.1473L15.1892 0.812134L5.85645 10.1449L9.28965 13.5757Z" fill="#A9A9A9"/>
<path d="M-0.0012207 16.0006L3.43073 12.5687L6.86268 16.0006L3.43073 19.4326L-0.0012207 16.0006Z" fill="#A9A9A9"/>
<path d="M9.28957 18.4244L15.1891 24.3239L21.0911 18.422L24.5243 21.8504L24.5219 21.8528L15.1891 31.188L5.85636 21.8576L5.85156 21.8528L9.28957 18.4244Z" fill="#A9A9A9"/>
<path d="M23.5098 16.0013L26.9417 12.5694L30.3737 16.0013L26.9417 19.4333L23.5098 16.0013Z" fill="#A9A9A9"/>
<path d="M18.6703 15.9988L15.1891 12.5153L12.6148 15.0896L12.3173 15.3847L11.7079 15.994L11.7031 15.9988L11.7079 16.006L15.1891 19.4848L18.6703 16.0012L18.6727 15.9988H18.6703Z" fill="#A9A9A9"/>
<path d="M35.7285 8.17285H43.1947C45.0469 8.17285 46.448 8.65268 47.3981 9.61235C47.756 9.96684 48.0382 10.3904 48.2275 10.8572C48.4168 11.3241 48.5093 11.8245 48.4993 12.3282V12.3738C48.5057 12.7864 48.4483 13.1975 48.3289 13.5926C48.2226 13.9326 48.0683 14.2558 47.8707 14.5522C47.6864 14.8318 47.4635 15.0838 47.2085 15.3008C46.9594 15.5152 46.6865 15.7003 46.3952 15.8526C47.2353 16.1452 47.9907 16.6395 48.5952 17.2921C49.1295 17.8999 49.3966 18.7396 49.3966 19.8112V19.8568C49.4117 20.5261 49.2661 21.1892 48.9719 21.7905C48.6868 22.3446 48.2689 22.8193 47.7555 23.1724C47.1751 23.5616 46.5289 23.842 45.8482 24.0001C45.0395 24.1919 44.2105 24.2846 43.3795 24.2761H35.7285V8.17285ZM42.4462 14.6842C43.0921 14.7154 43.735 14.5764 44.3103 14.2811C44.5347 14.1501 44.7179 13.9588 44.8392 13.729C44.9604 13.4992 45.0149 13.24 44.9965 12.9808V12.9352C45.0084 12.6964 44.9599 12.4584 44.8554 12.2433C44.751 12.0282 44.5941 11.8428 44.3991 11.7044C44.0008 11.4213 43.4258 11.2798 42.6741 11.2798H39.1809V14.6842H42.4462ZM43.3891 21.1739C44.0326 21.21 44.6732 21.0627 45.2364 20.7493C45.4558 20.6083 45.6334 20.4111 45.7507 20.1782C45.868 19.9453 45.9207 19.6852 45.9034 19.4249V19.3794C45.912 19.132 45.8599 18.8863 45.7516 18.6638C45.6432 18.4413 45.482 18.2487 45.282 18.103C44.8693 17.7831 44.2024 17.6232 43.2811 17.6232H39.1809V21.1739H43.3891Z" fill="#A9A9A9"/>
<path d="M53.8447 8.17285H57.3883V24.2809H53.8447V8.17285Z" fill="#A9A9A9"/>
<path d="M62.7502 8.17285H66.0179L73.5705 18.0862V8.17285H77.0685V24.2809H74.0527L66.253 14.0412V24.2809H62.7502V8.17285Z" fill="#A9A9A9"/>
<path d="M87.7976 8.05774H91.0605L97.9629 24.2809H94.2634L92.7903 20.6678H85.9791L84.506 24.2809H80.8928L87.7976 8.05774ZM91.5259 17.5392L89.3811 12.3139L87.2458 17.5392H91.5259Z" fill="#A9A9A9"/>
<path d="M101.794 8.17285H105.062L112.61 18.0862V8.17285H116.108V24.2809H113.092L105.292 14.0412V24.2809H101.794V8.17285Z" fill="#A9A9A9"/>
<path d="M128.862 24.5639C127.733 24.5736 126.613 24.3549 125.57 23.921C124.589 23.5156 123.698 22.9179 122.951 22.1631C122.204 21.4082 121.616 20.5115 121.221 19.5257C120.804 18.4945 120.593 17.3918 120.599 16.2796V16.234C120.581 14.0417 121.424 11.9299 122.948 10.3537C123.698 9.58372 124.595 8.9733 125.587 8.5591C126.666 8.11228 127.824 7.88944 128.991 7.90412C129.682 7.89897 130.371 7.96084 131.05 8.08886C131.631 8.19866 132.198 8.3683 132.744 8.59508C133.239 8.80348 133.71 9.06577 134.147 9.37721C134.574 9.68096 134.976 10.0196 135.347 10.3897L133.094 12.9904C132.518 12.4593 131.873 12.0096 131.175 11.654C130.489 11.3262 129.737 11.162 128.977 11.1742C128.345 11.1674 127.718 11.2953 127.139 11.5493C126.56 11.8033 126.042 12.1775 125.618 12.6473C125.198 13.1158 124.87 13.6585 124.649 14.2475C124.418 14.87 124.302 15.5293 124.306 16.1932V16.2388C124.304 16.9019 124.42 17.56 124.649 18.1821C124.867 18.7733 125.192 19.3191 125.609 19.792C126.029 20.2675 126.546 20.6473 127.125 20.9056C127.705 21.1639 128.333 21.2947 128.967 21.2891C129.775 21.3145 130.577 21.1407 131.302 20.7828C131.992 20.4068 132.63 19.9422 133.2 19.4009L135.455 21.6801C135.057 22.1123 134.626 22.5134 134.166 22.8797C133.715 23.2366 133.225 23.5416 132.705 23.789C132.152 24.0496 131.568 24.2422 130.968 24.3624C130.275 24.5014 129.569 24.5689 128.862 24.5639Z" fill="#A9A9A9"/>
<path d="M139.636 8.17285H151.759V11.3254H143.122V14.593H150.728V17.7455H143.134V21.1283H151.879V24.2809H139.644L139.636 8.17285Z" fill="#A9A9A9"/>
</g>
<defs>
<clipPath id="clip0_0_892">
<rect width="151.877" height="30.3758" fill="white" transform="translate(0 0.812134)"/>
</clipPath>
</defs>
</svg>
