<svg width="141" height="26" viewBox="0 0 141 26" fill="none" xmlns="http://www.w3.org/2000/svg">
<path d="M28.5708 7.53377C23.4938 7.53377 19.5287 11.3549 19.5287 16.469C19.5287 21.5832 23.3948 25.3697 28.5708 25.3697C33.7469 25.3697 37.677 21.5197 37.677 16.4402C37.677 11.3896 33.8109 7.53377 28.5708 7.53377ZM28.6058 21.6871C25.7121 21.6871 23.5986 19.459 23.5986 16.469C23.5986 13.4502 25.6771 11.2222 28.5708 11.2222C31.4936 11.2222 33.613 13.4848 33.613 16.4748C33.613 19.459 31.4936 21.6871 28.6058 21.6871ZM38.789 11.4242H41.3101V25.0464H45.345V7.86278H38.789V11.4242ZM9.37459 11.2222C11.4939 11.2222 13.1766 12.5151 13.8112 14.443H18.0848C17.3104 10.3275 13.8811 7.53377 9.40952 7.53377C4.33244 7.53377 0.367432 11.3549 0.367432 16.469C0.367432 21.5889 4.23346 25.3755 9.40952 25.3755C13.7763 25.3755 17.2755 22.5817 18.0499 18.4316H13.8112C13.5366 19.3762 12.9578 20.2058 12.1629 20.7936C11.3681 21.3815 10.4011 21.6952 9.40952 21.6871C6.48671 21.6871 4.43142 19.459 4.43142 16.469C4.43142 13.4502 6.45177 11.2222 9.38041 11.2222H9.37459ZM115.428 14.8124L112.471 14.3795C111.062 14.1775 110.054 13.7157 110.054 12.619C110.054 11.4242 111.364 10.8297 113.14 10.8297C115.097 10.8297 116.343 11.6551 116.605 13.0173H120.506C120.069 9.55979 117.379 7.53377 113.245 7.53377C108.977 7.53377 106.153 9.69832 106.153 12.7518C106.153 15.6725 107.999 17.3695 111.731 17.9005L114.689 18.3334C116.139 18.5297 116.942 19.0954 116.942 20.1574C116.942 21.5197 115.533 22.0853 113.583 22.0853C111.196 22.0853 109.851 21.1214 109.647 19.661H105.682C106.054 23.0147 108.709 25.3755 113.542 25.3755C117.95 25.3755 120.878 23.3783 120.878 19.9612C120.878 16.902 118.759 15.3088 115.428 14.8124ZM43.3246 0.791905C42.9854 0.780076 42.6473 0.836926 42.3309 0.95898C42.0146 1.08103 41.7267 1.26573 41.4847 1.50179C41.2428 1.73786 41.0519 2.02033 40.9238 2.33197C40.7957 2.6436 40.733 2.97786 40.7395 3.31433C40.7395 4.78045 41.8458 5.84253 43.3246 5.84253C43.6649 5.8552 44.0041 5.79878 44.3215 5.67673C44.639 5.55469 44.9279 5.36959 45.1705 5.13282C45.4132 4.89605 45.6044 4.6126 45.7325 4.29989C45.8607 3.98717 45.923 3.65178 45.9156 3.31433C45.9221 2.97736 45.8593 2.64261 45.7308 2.33057C45.6023 2.01853 45.4109 1.73578 45.1684 1.49963C44.9258 1.26349 44.6372 1.07891 44.3201 0.957218C44.0031 0.835525 43.6644 0.779272 43.3246 0.791905ZM102.52 13.7504C102.52 10.0273 100.238 7.53954 95.3938 7.53954C90.8232 7.53954 88.2673 9.83108 87.7665 13.3521H91.7665C91.9703 11.9899 93.0474 10.8585 95.3297 10.8585C97.3792 10.8585 98.3865 11.7532 98.3865 12.8499C98.3865 14.2814 96.5408 14.645 94.2526 14.8759C91.1609 15.2107 87.324 16.2728 87.324 20.2613C87.324 23.3494 89.653 25.3408 93.3443 25.3408C96.238 25.3408 98.0546 24.146 98.9629 22.2527C99.0968 23.944 100.372 25.0407 102.154 25.0407H104.506V21.485H102.526V13.7504H102.52ZM98.5611 18.0679C98.5611 20.3595 96.5408 22.0507 94.0838 22.0507C92.57 22.0507 91.289 21.4158 91.289 20.0882C91.289 18.3969 93.3443 17.9352 95.2249 17.7331C97.0415 17.5715 98.0488 17.1732 98.5553 16.4056L98.5611 18.0679ZM77.1408 7.53377C74.8933 7.53377 73.0069 8.46885 71.6678 10.0273V0.624512H67.6329V25.0407H71.5921V22.7838C72.9429 24.4115 74.8526 25.3755 77.1408 25.3755C81.9849 25.3755 85.6472 21.5889 85.6472 16.469C85.6472 11.3549 81.9209 7.53377 77.1466 7.53377H77.1408ZM76.5411 21.6871C73.6474 21.6871 71.5339 19.459 71.5339 16.469C71.5339 13.4848 73.6823 11.2222 76.5702 11.2222C79.4988 11.2222 81.5483 13.4502 81.5483 16.4748C81.5483 19.459 79.4289 21.6871 76.5411 21.6871ZM57.9853 7.53377C55.3652 7.53377 53.6476 8.59584 52.6345 10.0908V7.86855H48.6346V25.0407H52.6695V15.7071C52.6695 13.0808 54.3521 11.2222 56.8383 11.2222C59.1556 11.2222 60.6053 12.8499 60.6053 15.2049V25.0407H64.6344V14.9106C64.6344 10.593 62.387 7.53377 57.9853 7.53377ZM140.104 15.9034C140.104 10.9913 136.47 7.53377 131.603 7.53377C126.421 7.53377 122.625 11.3896 122.625 16.469C122.625 21.8198 126.689 25.3755 131.667 25.3755C135.871 25.3755 139.16 22.9165 140.005 19.4302H135.801C135.195 20.954 133.716 21.8198 131.731 21.8198C129.14 21.8198 127.19 20.2267 126.759 17.433H140.104V15.9091V15.9034ZM126.992 14.5758C127.632 12.1861 129.449 11.0259 131.533 11.0259C133.815 11.0259 135.568 12.3189 135.97 14.5758H126.992Z" fill="#A9A9A9"/>
</svg>
