<svg width="200" height="201" viewBox="0 0 200 201" fill="none" xmlns="http://www.w3.org/2000/svg">
<g id="Frame 219">
<g id="Group 5276">
<path id="Vector" d="M84.4823 55.6685C86.0982 55.6672 87.692 56.0433 89.1359 56.7668C90.5799 57.4902 91.834 58.5408 92.7977 59.8344L98.7696 52.047L80.851 38.3789L67.1465 56.2497L74.8693 62.1406C75.6422 60.2289 76.9703 58.5914 78.6832 57.4381C80.3961 56.2849 82.4156 55.6686 84.4823 55.6685Z" fill="#634EE2"/>
<path id="Vector_2" d="M168.476 122.138H197.86C199.089 126.795 199.229 131.67 198.272 136.39C197.315 141.109 195.285 145.547 192.338 149.361C189.391 153.175 185.607 156.264 181.275 158.391C176.944 160.517 172.181 161.624 167.353 161.627C166.491 161.627 165.638 161.592 164.794 161.523V144.246C164.795 143.418 164.592 142.602 164.201 141.871C163.811 141.139 163.247 140.515 162.557 140.053C161.868 139.591 161.075 139.305 160.249 139.22C159.423 139.136 158.588 139.256 157.82 139.569V132.77C157.819 131.374 158.094 129.992 158.63 128.702C159.165 127.412 159.95 126.24 160.939 125.253C161.929 124.265 163.104 123.482 164.397 122.948C165.69 122.413 167.076 122.138 168.476 122.138Z" fill="#634EE2"/>
<path id="Vector_3" d="M19.0493 132.164L8.82202 124.362L0.999896 134.562L11.2272 142.364L19.0493 132.164Z" fill="#634EE2"/>
<path id="ab2e16f2-9798-47da-b25d-769524f3c86f" d="M25.2384 152.602L16.0307 83.7574L150.89 62.7159L160.098 131.56L25.2384 152.602Z" fill="#F1F1F1" stroke="#111111" stroke-width="0.563637"/>
<path id="bf81c03f-68cf-4889-8697-1102f95f97bb" d="M148.055 68.9491L20.3833 88.8691L28.1279 146.774L155.8 126.854L148.055 68.9491Z" fill="white"/>
<path id="f065dccc-d150-492a-a09f-a7f3f89523f0" d="M16.193 85.4113L15.4367 79.7564L150.296 58.7149L151.052 64.3698L16.193 85.4113Z" fill="#E5E5E5" stroke="#111111" stroke-width="0.563637"/>
<path id="bdbbf39c-df25-4682-8b85-5a6af4a1bd14" d="M19.8851 83.671C20.4802 83.671 20.9626 83.15 20.9626 82.5074C20.9626 81.8647 20.4802 81.3438 19.8851 81.3438C19.29 81.3438 18.8076 81.8647 18.8076 82.5074C18.8076 83.15 19.29 83.671 19.8851 83.671Z" fill="white"/>
<path id="abcd4292-0b1f-4102-9b5e-e8bbd87baabc" d="M23.9322 83.0401C24.5273 83.0401 25.0097 82.5192 25.0097 81.8765C25.0097 81.2339 24.5273 80.7129 23.9322 80.7129C23.3371 80.7129 22.8547 81.2339 22.8547 81.8765C22.8547 82.5192 23.3371 83.0401 23.9322 83.0401Z" fill="white"/>
<path id="a3fb731e-8b3d-41ca-96f2-91600dc0b434" d="M27.9796 82.4083C28.5747 82.4083 29.0571 81.8873 29.0571 81.2447C29.0571 80.602 28.5747 80.0811 27.9796 80.0811C27.3845 80.0811 26.9021 80.602 26.9021 81.2447C26.9021 81.8873 27.3845 82.4083 27.9796 82.4083Z" fill="white"/>
<path id="ab2e16f2-9798-47da-b25d-769524f3c86f_2" d="M45.6986 162.097V92.5377H181.957V162.097H45.6986Z" fill="#E6E6E6" stroke="#111111" stroke-width="0.563637"/>
<path id="f065dccc-d150-492a-a09f-a7f3f89523f0_2" d="M45.6608 94.1797V88.5065H181.878V94.1797H45.6608Z" fill="#E5E5E5" stroke="#111111" stroke-width="0.604864"/>
<path id="bdbbf39c-df25-4682-8b85-5a6af4a1bd14_2" d="M49.6776 93.0597C50.2727 93.0597 50.7551 92.5387 50.7551 91.896C50.7551 91.2534 50.2727 90.7324 49.6776 90.7324C49.0825 90.7324 48.6001 91.2534 48.6001 91.896C48.6001 92.5387 49.0825 93.0597 49.6776 93.0597Z" fill="white"/>
<path id="abcd4292-0b1f-4102-9b5e-e8bbd87baabc_2" d="M53.7669 93.0597C54.362 93.0597 54.8444 92.5387 54.8444 91.896C54.8444 91.2534 54.362 90.7324 53.7669 90.7324C53.1719 90.7324 52.6895 91.2534 52.6895 91.896C52.6895 92.5387 53.1719 93.0597 53.7669 93.0597Z" fill="white"/>
<path id="a3fb731e-8b3d-41ca-96f2-91600dc0b434_2" d="M57.8563 93.0597C58.4514 93.0597 58.9338 92.5387 58.9338 91.896C58.9338 91.2534 58.4514 90.7324 57.8563 90.7324C57.2612 90.7324 56.7788 91.2534 56.7788 91.896C56.7788 92.5387 57.2612 93.0597 57.8563 93.0597Z" fill="white"/>
<path id="bf81c03f-68cf-4889-8697-1102f95f97bb_2" d="M49.6107 156.493V98.5504H178.044V156.493H49.6107Z" fill="white" stroke="#111111" stroke-width="0.563637"/>
<g id="Group 5227">
<ellipse id="Ellipse 287" cx="150.545" cy="121.987" rx="7.0611" ry="7.08383" fill="#634EE2"/>
<path id="Ellipse 288" d="M161.722 140.174C161.722 138.847 161.434 137.533 160.875 136.306C160.316 135.08 159.497 133.966 158.465 133.027C157.432 132.088 156.206 131.344 154.857 130.836C153.508 130.328 152.062 130.066 150.601 130.066C149.141 130.066 147.695 130.328 146.346 130.836C144.997 131.344 143.771 132.088 142.738 133.027C141.705 133.966 140.886 135.08 140.327 136.306C139.769 137.533 139.481 138.847 139.481 140.174L150.601 140.174H161.722Z" fill="#634EE2"/>
</g>
<path id="Vector_4" d="M84.3556 140.576H66.188V142.051H84.3556V140.576Z" fill="#E6E6E6"/>
<path id="Vector_5" d="M86.6213 144.409H63.7573V145.884H86.6213V144.409Z" fill="#E6E6E6"/>
<g id="Group 5279">
<path id="Vector_6" d="M83.7385 118.174H65.7559V132.139H83.7385V118.174Z" fill="#634EE2"/>
<path id="Vector_7" d="M85.5368 131.043H68.2735C68.0828 131.043 67.8999 130.959 67.7651 130.809C67.6302 130.659 67.5544 130.457 67.5542 130.245V117.077C67.5544 116.866 67.6302 116.663 67.7651 116.513C67.8999 116.364 68.0828 116.28 68.2735 116.279H85.5368C85.7275 116.28 85.9104 116.364 86.0452 116.513C86.1801 116.663 86.2559 116.866 86.2561 117.077V130.245C86.2559 130.457 86.1801 130.659 86.0452 130.809C85.9104 130.959 85.7275 131.043 85.5368 131.043ZM68.2735 117.077V130.245H85.5374L85.5368 117.077H68.2735Z" fill="#3F3D56"/>
<path id="Vector_8" d="M83.5586 116.578H82.8393C82.8393 114.832 82.2141 113.157 81.1012 111.923C79.9883 110.688 78.4789 109.994 76.905 109.994C75.3312 109.994 73.8218 110.688 72.7089 111.923C71.596 113.157 70.9708 114.832 70.9708 116.578H70.2515C70.2515 114.62 70.9525 112.743 72.2002 111.358C73.448 109.974 75.1404 109.196 76.905 109.196C78.6697 109.196 80.362 109.974 81.6098 111.358C82.8576 112.743 83.5586 114.62 83.5586 116.578Z" fill="#3F3D56"/>
<path id="Vector_9" d="M78.7038 122.064C78.7041 121.716 78.6227 121.375 78.4675 121.073C78.3124 120.771 78.0889 120.52 77.8191 120.343C77.5494 120.167 77.2428 120.071 76.9296 120.067C76.6165 120.062 76.3076 120.148 76.0337 120.316C75.7597 120.485 75.5301 120.729 75.3677 121.026C75.2052 121.323 75.1154 121.662 75.1073 122.01C75.0992 122.357 75.1729 122.701 75.3213 123.007C75.4696 123.313 75.6874 123.57 75.9531 123.754V125.896C75.9531 126.034 75.9778 126.172 76.0256 126.3C76.0735 126.428 76.1436 126.544 76.232 126.642C76.3204 126.741 76.4254 126.818 76.5409 126.871C76.6564 126.924 76.7802 126.952 76.9053 126.952C77.1578 126.952 77.4 126.841 77.5785 126.642C77.7571 126.444 77.8574 126.176 77.8574 125.896V123.754C78.1163 123.575 78.3298 123.326 78.4779 123.031C78.626 122.735 78.7037 122.402 78.7038 122.064Z" fill="#3F3D56"/>
</g>
</g>
</g>
</svg>
