<svg width="200" height="200" viewBox="0 0 200 200" fill="none" xmlns="http://www.w3.org/2000/svg">
<g id="Frame 220">
<g id="Group 5273">
<g id="Group 5277">
<path id="Path 133" d="M153.029 163.506C149.133 167.666 144.668 171.258 139.767 174.177C139.654 174.246 139.54 174.31 139.425 174.377L131.49 167.373C131.574 167.296 131.666 167.209 131.765 167.114C137.678 161.516 167.029 122.37 168.985 112.838C168.85 113.632 170.75 144.776 153.029 163.506Z" fill="#634EE2"/>
<path id="Path 134" d="M141.298 175.528C141.148 175.564 140.995 175.597 140.842 175.628L134.889 170.373C135.005 170.333 135.141 170.285 135.297 170.231C137.851 169.329 145.458 166.606 153.029 163.505C161.163 160.172 169.259 156.405 171 153.992C170.626 154.553 159.122 171.553 141.298 175.528Z" fill="#634EE2"/>
</g>
<path id="Vector" d="M67.2882 50.9488V78.5458C62.8911 79.6994 58.2873 79.8318 53.8309 78.9326C49.3744 78.0335 45.1842 76.1269 41.5826 73.3595C37.981 70.592 35.064 67.0375 33.056 62.9694C31.048 58.9013 30.0025 54.428 30 49.8937C30 49.0844 30.0326 48.2835 30.0978 47.491H46.4123C47.1945 47.4918 47.9648 47.3005 48.6554 46.9341C49.3459 46.5677 49.9355 46.0374 50.3719 45.3901C50.8084 44.7428 51.0784 43.9982 51.1581 43.2222C51.2378 42.4462 51.1247 41.6626 50.8289 40.9404H57.2488C58.567 40.94 59.8724 41.1985 61.0904 41.7012C62.3085 42.204 63.4152 42.9411 64.3475 43.8705C65.2798 44.7999 66.0194 45.9034 66.5239 47.1179C67.0285 48.3324 67.2882 49.6342 67.2882 50.9488Z" fill="#634EE2"/>
<path id="Vector_2" d="M142.102 57.8196H141.221V33.8645C141.221 32.0438 140.859 30.2409 140.156 28.5588C139.454 26.8767 138.424 25.3483 137.126 24.0608C135.828 22.7734 134.286 21.7521 132.59 21.0554C130.894 20.3586 129.076 20 127.24 20H76.0642C72.3563 20 68.8004 21.4607 66.1785 24.0608C63.5567 26.6609 62.0837 30.1874 62.0837 33.8645V165.284C62.0837 168.961 63.5567 172.487 66.1785 175.088C68.8003 177.688 72.3563 179.148 76.0641 179.148H127.24C130.948 179.148 134.504 177.688 137.126 175.088C139.748 172.487 141.221 168.961 141.221 165.284V74.8712H142.102L142.102 57.8196Z" fill="#111111"/>
<path id="Vector_3" d="M138.245 33.9618V165.188C138.245 167.934 137.145 170.568 135.187 172.509C133.229 174.451 130.573 175.542 127.804 175.542H76.3823C73.6132 175.542 70.9575 174.451 68.9995 172.509C67.0415 170.568 65.9415 167.934 65.9414 165.188V33.9618C65.9415 31.2157 67.0415 28.582 68.9995 26.6402C70.9576 24.6984 73.6132 23.6075 76.3823 23.6074H82.6203C82.3138 24.3544 82.1971 25.1647 82.2804 25.9669C82.3638 26.7691 82.6446 27.5388 83.0983 28.2081C83.5519 28.8774 84.1645 29.4259 84.882 29.8054C85.5996 30.1849 86.4002 30.3836 87.2134 30.3842H116.532C117.345 30.3836 118.146 30.1849 118.863 29.8054C119.581 29.4259 120.193 28.8774 120.647 28.2081C121.101 27.5388 121.381 26.7691 121.465 25.9669C121.548 25.1647 121.431 24.3544 121.125 23.6074H127.804C130.573 23.6075 133.229 24.6984 135.187 26.6402C137.145 28.582 138.245 31.2157 138.245 33.9618Z" fill="white"/>
<path id="Vector_4" d="M79.1233 35.7783C78.1967 35.7783 77.2791 35.9593 76.423 36.311C75.5669 36.6626 74.7891 37.1781 74.1339 37.8279C73.4786 38.4777 72.9589 39.2491 72.6043 40.0981C72.2497 40.9471 72.0671 41.857 72.0671 42.776C72.0671 43.6949 72.2496 44.6049 72.6042 45.4539C72.9588 46.3028 73.4786 47.0743 74.1338 47.7241C74.789 48.3739 75.5669 48.8893 76.423 49.241C77.2791 49.5926 78.1966 49.7736 79.1233 49.7736H79.1233C80.9947 49.7736 82.7895 49.0364 84.1127 47.7241C85.436 46.4118 86.1794 44.6319 86.1794 42.776C86.1794 40.9201 85.436 39.1402 84.1127 37.8279C82.7895 36.5156 80.9947 35.7783 79.1233 35.7783Z" fill="#F2F2F2"/>
<path id="Vector_5" d="M130.355 48.6795H93.3104C92.8426 48.6795 92.3939 48.4952 92.0631 48.1671C91.7323 47.839 91.5464 47.3941 91.5464 46.9301C91.5464 46.4661 91.7323 46.0211 92.0631 45.6931C92.3939 45.365 92.8426 45.1807 93.3104 45.1807H130.355C130.823 45.1807 131.272 45.365 131.603 45.6931C131.933 46.0211 132.119 46.4661 132.119 46.9301C132.119 47.3941 131.933 47.839 131.603 48.1671C131.272 48.4952 130.823 48.6795 130.355 48.6795Z" fill="#F2F2F2"/>
<path id="Vector_6" d="M104.997 41.2449H93.3104C92.8426 41.2449 92.3939 41.0606 92.0631 40.7325C91.7323 40.4045 91.5464 39.9595 91.5464 39.4955C91.5464 39.0315 91.7323 38.5866 92.0631 38.2585C92.3939 37.9304 92.8426 37.7461 93.3104 37.7461H104.997C105.465 37.7461 105.914 37.9304 106.245 38.2585C106.575 38.5866 106.761 39.0315 106.761 39.4955C106.761 39.9595 106.575 40.4045 106.245 40.7325C105.914 41.0606 105.465 41.2449 104.997 41.2449Z" fill="#F2F2F2"/>
<path id="Vector_7" d="M79.1233 65.0811C78.1967 65.0811 77.2791 65.2621 76.423 65.6137C75.5669 65.9654 74.7891 66.4808 74.1339 67.1306C73.4786 67.7804 72.9589 68.5518 72.6043 69.4008C72.2497 70.2498 72.0671 71.1597 72.0671 72.0787C72.0671 72.9976 72.2496 73.9076 72.6042 74.7566C72.9588 75.6056 73.4786 76.377 74.1338 77.0268C74.789 77.6766 75.5669 78.1921 76.423 78.5437C77.2791 78.8954 78.1966 79.0764 79.1233 79.0764H79.1233C80.9947 79.0764 82.7895 78.3391 84.1127 77.0268C85.436 75.7145 86.1794 73.9346 86.1794 72.0787C86.1794 70.2228 85.436 68.4429 84.1127 67.1306C82.7895 65.8183 80.9947 65.0811 79.1233 65.0811Z" fill="#F2F2F2"/>
<path id="Vector_8" d="M130.355 77.9822H93.3104C92.8426 77.9822 92.3939 77.7979 92.0631 77.4698C91.7323 77.1418 91.5464 76.6968 91.5464 76.2328C91.5464 75.7688 91.7323 75.3239 92.0631 74.9958C92.3939 74.6677 92.8426 74.4834 93.3104 74.4834H130.355C130.823 74.4834 131.272 74.6677 131.603 74.9958C131.933 75.3239 132.119 75.7688 132.119 76.2328C132.119 76.6968 131.933 77.1418 131.603 77.4698C131.272 77.7979 130.823 77.9822 130.355 77.9822Z" fill="#F2F2F2"/>
<path id="Vector_9" d="M104.997 70.5477H93.3104C92.8426 70.5477 92.3939 70.3634 92.0631 70.0353C91.7323 69.7072 91.5464 69.2622 91.5464 68.7982C91.5464 68.3343 91.7323 67.8893 92.0631 67.5612C92.3939 67.2331 92.8426 67.0488 93.3104 67.0488H104.997C105.465 67.0488 105.914 67.2331 106.245 67.5612C106.575 67.8893 106.761 68.3343 106.761 68.7982C106.761 69.2622 106.575 69.7072 106.245 70.0353C105.914 70.3634 105.465 70.5477 104.997 70.5477Z" fill="#F2F2F2"/>
<path id="Vector_10" d="M79.1233 123.686C77.2519 123.686 75.4571 124.423 74.1339 125.735C72.8106 127.047 72.0671 128.827 72.0671 130.683C72.0671 132.539 72.8105 134.319 74.1338 135.631C75.4571 136.944 77.2518 137.681 79.1233 137.681H79.1233C80.9947 137.681 82.7895 136.944 84.1127 135.631C85.436 134.319 86.1794 132.539 86.1794 130.683C86.1794 128.827 85.436 127.047 84.1127 125.735C82.7895 124.423 80.9947 123.686 79.1233 123.686Z" fill="#F2F2F2"/>
<path id="Vector_11" d="M130.355 136.588H93.3104C92.8426 136.588 92.3939 136.403 92.0631 136.075C91.7323 135.747 91.5464 135.302 91.5464 134.838C91.5464 134.374 91.7323 133.929 92.0631 133.601C92.3939 133.273 92.8426 133.089 93.3104 133.089H130.355C130.823 133.089 131.272 133.273 131.603 133.601C131.933 133.929 132.119 134.374 132.119 134.838C132.119 135.302 131.933 135.747 131.603 136.075C131.272 136.403 130.823 136.588 130.355 136.588Z" fill="#F2F2F2"/>
<path id="Vector_12" d="M104.997 129.152H93.3104C92.8426 129.152 92.3939 128.968 92.0631 128.64C91.7323 128.312 91.5464 127.867 91.5464 127.403C91.5464 126.939 91.7323 126.494 92.0631 126.166C92.3939 125.838 92.8426 125.653 93.3104 125.653H104.997C105.465 125.653 105.914 125.838 106.245 126.166C106.575 126.494 106.761 126.939 106.761 127.403C106.761 127.867 106.575 128.312 106.245 128.64C105.914 128.968 105.465 129.152 104.997 129.152Z" fill="#F2F2F2"/>
<path id="Vector_13" d="M79.1233 152.988C78.1967 152.988 77.2791 153.169 76.423 153.521C75.5669 153.873 74.7891 154.388 74.1339 155.038C73.4786 155.688 72.9589 156.459 72.6043 157.308C72.2497 158.157 72.0671 159.067 72.0671 159.986C72.0671 160.905 72.2496 161.815 72.6042 162.664C72.9588 163.513 73.4786 164.284 74.1338 164.934C74.789 165.584 75.5669 166.099 76.423 166.451C77.2791 166.803 78.1966 166.984 79.1233 166.984H79.1233C80.9947 166.984 82.7895 166.246 84.1127 164.934C85.436 163.622 86.1794 161.842 86.1794 159.986C86.1794 158.13 85.436 156.35 84.1127 155.038C82.7895 153.726 80.9947 152.988 79.1233 152.988Z" fill="#F2F2F2"/>
<path id="Vector_14" d="M130.355 165.89H93.3104C92.8426 165.89 92.3939 165.706 92.0631 165.378C91.7323 165.05 91.5464 164.605 91.5464 164.141C91.5464 163.677 91.7323 163.232 92.0631 162.904C92.3939 162.576 92.8426 162.392 93.3104 162.392H130.355C130.823 162.392 131.272 162.576 131.603 162.904C131.933 163.232 132.119 163.677 132.119 164.141C132.119 164.605 131.933 165.05 131.603 165.378C131.272 165.706 130.823 165.89 130.355 165.89Z" fill="#F2F2F2"/>
<path id="Vector_15" d="M104.997 158.455H93.3104C92.8426 158.455 92.3939 158.271 92.0631 157.943C91.7323 157.614 91.5464 157.169 91.5464 156.705C91.5464 156.241 91.7323 155.797 92.0631 155.468C92.3939 155.14 92.8426 154.956 93.3104 154.956H104.997C105.465 154.956 105.914 155.14 106.245 155.468C106.575 155.797 106.761 156.241 106.761 156.705C106.761 157.169 106.575 157.614 106.245 157.943C105.914 158.271 105.465 158.455 104.997 158.455Z" fill="#F2F2F2"/>
<path id="Vector_16" d="M144.65 118.219H59.5358C58.5712 118.218 57.6464 117.837 56.9643 117.161C56.2822 116.485 55.8985 115.567 55.8975 114.611V87.4949C55.8986 86.5383 56.2822 85.6212 56.9643 84.9447C57.6464 84.2683 58.5712 83.8878 59.5358 83.8867H144.65C145.615 83.8878 146.54 84.2683 147.222 84.9447C147.904 85.6212 148.288 86.5383 148.289 87.4949V114.611C148.288 115.567 147.904 116.485 147.222 117.161C146.54 117.837 145.615 118.218 144.65 118.219Z" fill="white"/>
<g id="Group 5250">
<g id="Group 5249">
<ellipse id="Ellipse 51" cx="7.04074" cy="6.99622" rx="7.04074" ry="6.99622" transform="matrix(1.00041 0 -0.00116196 0.999591 72.3704 94.3467)" fill="#FFBE55"/>
</g>
<g id="Vector 245">
<path d="M78.748 105.021C77.6506 104.925 76.5588 104.125 76.5593 103.707C76.5597 103.297 76.8946 103.104 77.2237 102.856C77.5527 102.608 79.0531 104.112 79.9511 103.81C80.849 103.507 80.3095 102.705 79.5022 102.183C78.5512 101.567 77.8648 101.11 77.2267 100.13C76.8825 99.6465 76.333 98.288 77.4732 97.6848C77.8298 97.4961 77.9653 97.3768 79.0156 97.4087L79.0385 96.694C79.2816 96.4183 80.295 96.4313 80.5756 96.7406L80.5527 97.4553C81.1972 97.6101 82.7328 98.0419 82.8835 98.5057C83.0634 98.6969 83.198 99.2521 82.8823 99.6331C82.3585 100.265 78.7582 98.1509 79.042 99.6331C79.2745 100.848 83.5467 102.102 82.3348 103.958C82.0788 104.583 80.9903 105.12 80.3088 105.069L80.2864 105.766C79.9465 106.164 78.9567 106.104 78.7471 105.788L78.748 105.021Z" fill="white"/>
</g>
</g>
<g id="Group 5274">
<path id="Vector_17" d="M130.355 106.957H93.3099C92.8421 106.957 92.3934 106.773 92.0626 106.444C91.7318 106.116 91.5459 105.671 91.5459 105.207C91.5459 104.743 91.7318 104.298 92.0626 103.97C92.3934 103.642 92.8421 103.458 93.3099 103.458H130.355C130.823 103.458 131.271 103.642 131.602 103.97C131.933 104.298 132.119 104.743 132.119 105.207C132.119 105.671 131.933 106.116 131.602 106.444C131.271 106.773 130.823 106.957 130.355 106.957Z" fill="#634EE2"/>
<path id="Vector_18" d="M104.997 99.5213H93.3099C92.8421 99.5213 92.3934 99.337 92.0626 99.0089C91.7318 98.6808 91.5459 98.2359 91.5459 97.7719C91.5459 97.3079 91.7318 96.8629 92.0626 96.5349C92.3934 96.2068 92.8421 96.0225 93.3099 96.0225H104.997C105.465 96.0225 105.913 96.2068 106.244 96.5349C106.575 96.8629 106.761 97.3079 106.761 97.7719C106.761 98.2359 106.575 98.6808 106.244 99.0089C105.913 99.337 105.465 99.5213 104.997 99.5213Z" fill="#634EE2"/>
<rect id="Rectangle 4088" x="56.2116" y="83.8327" width="91.7631" height="34.2727" stroke="#2C3131" stroke-width="0.628217"/>
<g id="Group 5251">
<g id="Group 5249_2">
<ellipse id="Ellipse 51_2" cx="7.04074" cy="6.99622" rx="7.04074" ry="6.99622" transform="matrix(1.00041 0 -0.00116196 0.999591 72.3701 93.6475)" fill="#FFBE55"/>
</g>
<g id="Vector 245_2">
<path d="M78.7475 104.322C77.6501 104.225 76.5583 103.426 76.5588 103.007C76.5592 102.598 76.8941 102.404 77.2232 102.157C77.5522 101.909 79.0526 103.413 79.9506 103.11C80.8485 102.808 80.309 102.005 79.5017 101.483C78.5507 100.868 77.8643 100.411 77.2262 99.4306C76.882 98.9472 76.3325 97.5888 77.4727 96.9856C77.8293 96.7969 77.9648 96.6776 79.0151 96.7094L79.038 95.9948C79.2811 95.7191 80.2945 95.7321 80.5751 96.0414L80.5522 96.7561C81.1968 96.9109 82.7323 97.3427 82.883 97.8065C83.0629 97.9977 83.1975 98.5529 82.8818 98.9339C82.358 99.5659 78.7578 97.4517 79.0415 98.9339C79.274 100.149 83.5462 101.403 82.3344 103.259C82.0783 103.884 80.9898 104.421 80.3083 104.37L80.2859 105.067C79.946 105.465 78.9562 105.405 78.7466 105.089L78.7475 104.322Z" fill="white"/>
</g>
</g>
</g>
<path id="Vector_19" d="M163.188 59.4558L153.556 52.1094L146.189 61.7146L155.821 69.061L163.188 59.4558Z" fill="#634EE2"/>
</g>
</g>
</svg>
