<svg width="124" height="34" viewBox="0 0 124 34" fill="none" xmlns="http://www.w3.org/2000/svg">
<path d="M17.2002 33.579C26.4361 33.579 33.9233 26.1563 33.9233 17C33.9233 7.84369 26.4361 0.421021 17.2002 0.421021C7.96426 0.421021 0.477051 7.84369 0.477051 17C0.477051 26.1563 7.96426 33.579 17.2002 33.579Z" fill="#A9A9A9"/>
<path d="M18.9814 18.53V18.5273C18.8658 18.5353 18.2689 18.57 16.9408 18.57C15.8788 18.57 15.134 18.5406 14.8705 18.5273V18.53C10.7865 18.3514 7.74035 17.6477 7.74035 16.8028C7.74035 15.9605 10.7892 15.2542 14.8705 15.0756V17.829C15.1367 17.8476 15.903 17.8929 16.9596 17.8929C18.2286 17.8929 18.8631 17.8396 18.9814 17.829V15.0782C23.0574 15.2595 26.0955 15.9632 26.0955 16.8054C26.0955 17.6477 23.0547 18.3514 18.9814 18.5326V18.53ZM18.9814 14.793V12.3302H24.6678V8.57458H9.18683V12.3302H14.8732V14.793C10.2515 15.0036 6.77783 15.9099 6.77783 16.9974C6.77783 18.0848 10.2542 18.9911 14.8732 19.2043V27.0993H18.9841V19.2043C23.5978 18.9938 27.0661 18.0875 27.0661 17C27.0661 15.9152 23.5978 15.0063 18.9841 14.7957" fill="#F8F8FC"/>
<path d="M48.1269 9.60078V13.5829H52.0307V16.5709H48.1V22.6295C48.1 23.9675 48.8447 24.6205 49.9363 24.6205C50.4821 24.6205 51.1139 24.45 51.6301 24.1941L52.6061 27.1527C51.6032 27.5499 50.7698 27.7205 49.7078 27.7498C46.6374 27.8644 44.629 26.1292 44.629 22.6295V16.5709H41.9888V13.5829H44.629V9.97127L48.1269 9.60078ZM115.431 13.3964L115.689 15.017C116.78 13.2818 118.243 13.0259 119.679 13.0259C121.141 13.0259 122.547 13.5936 123.322 14.3613L121.744 17.3759C121.026 16.7788 120.367 16.4643 119.219 16.4643C117.383 16.4643 115.689 17.4318 115.689 20.02V27.4166H112.188V13.391L115.431 13.3964ZM106.851 18.7726C106.623 16.9521 105.187 16.0405 103.179 16.0405C101.286 16.0405 99.7347 16.9521 99.2184 18.7726H106.851ZM99.162 21.6459C99.3905 23.3811 100.912 24.6339 103.38 24.6339C104.671 24.6339 106.365 24.1488 107.169 23.3251L109.406 25.5161C107.913 27.0514 105.475 27.7924 103.321 27.7924C98.4441 27.7924 95.5431 24.8045 95.5431 20.3105C95.5431 16.0432 98.471 12.9699 103.063 12.9699C107.798 12.9699 110.755 15.8726 110.209 21.6459H99.162ZM83.724 7.50574V15.2995C84.9877 13.6789 86.5363 13.1938 88.1441 13.1938C92.1609 13.1938 93.9407 15.8966 93.9407 20.0227V27.4193H90.4401V20.052C90.4401 17.4905 89.0905 16.411 87.2246 16.411C85.157 16.411 83.724 18.1462 83.724 20.2519V27.4219H80.2234V7.5084L83.724 7.50574ZM74.4268 9.44085V13.423H78.3307V16.411H74.3999V22.4695C74.3999 23.8076 75.1474 24.4606 76.2362 24.4606C76.782 24.4606 77.4138 24.29 77.9301 24.0341L78.906 26.9928C77.9032 27.3899 77.0697 27.5605 76.0077 27.5899C72.9373 27.7045 70.9289 25.9666 70.9289 22.4695V16.411H68.2887V13.423H70.9289V9.81135L74.4268 9.44085ZM64.7559 18.7726C64.5274 16.9521 63.0916 16.0405 61.0833 16.0405C59.1905 16.0405 57.6391 16.9521 57.1229 18.7726H64.7559ZM57.0665 21.6459C57.295 23.3811 58.8168 24.6339 61.2849 24.6339C62.5754 24.6339 64.2693 24.1488 65.0731 23.3251L67.3101 25.5161C65.8179 27.0514 63.3793 27.7924 61.2257 27.7924C56.3459 27.7924 53.4476 24.8045 53.4476 20.3105C53.4476 16.0432 56.3755 12.9699 60.965 12.9699C65.6996 12.9699 68.6544 15.8726 68.1113 21.6459H57.0665Z" fill="#A9A9A9"/>
</svg>
