<svg width="200" height="200" viewBox="0 0 200 200" fill="none" xmlns="http://www.w3.org/2000/svg">
<g id="Frame 221">
<g id="Group 5256">
<path id="Vector" d="M153.965 76.9688H45.6145V169.684H153.965V76.9688Z" fill="white"/>
<path id="Vector_2" d="M154.28 170H45.2996V76.6523H154.28V170ZM45.9295 169.367H153.65V77.2852H45.9295V169.367Z" fill="#2C3131"/>
<path id="Vector_3" d="M113.333 95.0049H86.2456V169.683H113.333V95.0049Z" fill="#634EE2"/>
<path id="Vector_4" d="M113.333 95.0049H86.2456V169.683H113.333V95.0049Z" fill="#634EE2"/>
<path id="Vector_5" d="M160.264 68.4248H39.3152V95.0052H160.264V68.4248Z" fill="white"/>
<path id="Vector_6" d="M160.579 95.3226H39V68.1094H160.579V95.3226ZM39.6299 94.6897H159.949V68.7422H39.6299V94.6897Z" fill="#2C3131"/>
<path id="Vector_7" d="M113.333 65.8936H86.2456V94.689H113.333V65.8936Z" fill="#634EE2"/>
<path id="Vector_8" d="M96.8894 40.7865C104.04 51.435 97.3028 68.5616 97.3028 68.5616C97.3028 68.5616 78.973 68.4235 71.8227 57.775C64.6724 47.1266 71.4093 30 71.4093 30C71.4093 30 89.7391 30.1381 96.8894 40.7865Z" fill="#634EE2"/>
<path id="Vector_9" d="M100.17 40.7865C93.0195 51.435 99.7565 68.5616 99.7565 68.5616C99.7565 68.5616 118.086 68.4235 125.237 57.775C132.387 47.1266 125.65 30 125.65 30C125.65 30 107.32 30.1381 100.17 40.7865Z" fill="#634EE2"/>
<g id="Group 5250">
<g id="Group 5249">
<ellipse id="Ellipse 51" cx="21.871" cy="22.016" rx="21.871" ry="22.016" transform="matrix(1.00041 0 -0.0011555 0.999591 78.2512 103.261)" fill="#FFBE55"/>
</g>
<g id="Vector 245">
<path d="M98.0621 136.85C94.6534 136.546 91.2618 134.03 91.2633 132.713C91.2647 131.425 92.3049 130.816 93.3271 130.036C94.3493 129.257 99.0101 133.989 101.799 133.037C104.589 132.085 102.913 129.56 100.405 127.917C97.4508 125.982 95.3188 124.542 93.3366 121.457C92.2674 119.936 90.5603 115.662 94.1023 113.763C95.21 113.17 95.6308 112.794 98.8935 112.894L98.9646 110.645C99.7198 109.778 102.868 109.819 103.74 110.792L103.668 113.041C105.67 113.528 110.44 114.887 110.909 116.347C111.467 116.948 111.885 118.696 110.905 119.894C109.278 121.883 98.0941 115.23 98.9754 119.894C99.6978 123.717 112.969 127.663 109.204 133.504C108.409 135.472 105.028 137.16 102.911 137L102.841 139.194C101.785 140.445 98.7106 140.257 98.0595 139.263L98.0621 136.85Z" fill="white"/>
</g>
</g>
</g>
</g>
</svg>
